<?xml version="1.0" encoding="UTF-8"?>
<svg id="Layer_1" data-name="Layer 1" xmlns="http://www.w3.org/2000/svg" version="1.1" viewBox="0 0 140 50">
  <defs>
    <style>
      .cls-1 {
        fill: none;
        stroke: #00b2b8;
        stroke-miterlimit: 10;
        stroke-width: 3.7px;
      }

      .cls-2 {
        fill: #00b2b8;
      }

      .cls-2, .cls-3 {
        stroke-width: 0px;
      }

      .cls-3 {
        fill: #1b4250;
      }
    </style>
  </defs>
  <path class="cls-2" d="M49.6,13.4c-1.2-2.6-2.8-4.8-4.7-6.5-1.9-1.7-4.2-3.1-6.7-4-2.5-.9-5.1-1.4-7.7-1.4s-5.2.5-7.7,1.4c-2.5.9-4.7,2.2-6.7,4-2,1.7-3.6,3.9-4.7,6.5-1.2,2.6-1.8,5.6-1.8,8.9s.6,6.4,1.8,8.9c1.2,2.6,2.8,4.7,4.7,6.5,2,1.7,4.2,3.1,6.7,4,2.5.9,5.1,1.4,7.7,1.4s5.2-.5,7.7-1.4c2.5-.9,4.7-2.2,6.7-4,1.9-1.7,3.5-3.9,4.7-6.5,1.2-2.6,1.8-5.6,1.8-8.9s-.6-6.3-1.8-8.9h0ZM45.4,30.8c-.9,2.5-2.1,4.5-3.6,6.2-1.5,1.7-3.2,2.9-5.2,3.7-1.9.8-4,1.2-6.2,1.2s-4.2-.4-6.2-1.2c-2-.8-3.7-2.1-5.2-3.7-1.5-1.7-2.7-3.7-3.6-6.2-.9-2.5-1.3-5.3-1.3-8.6s.4-6,1.3-8.5c.9-2.5,2.1-4.5,3.6-6.2,1.5-1.7,3.2-2.9,5.2-3.8,2-.9,4-1.3,6.2-1.3s4.2.4,6.2,1.3c1.9.9,3.6,2.1,5.2,3.8,1.5,1.7,2.7,3.7,3.6,6.2.9,2.5,1.3,5.3,1.3,8.5s-.4,6.1-1.3,8.6h0Z"/>
  <g>
    <polygon class="cls-2" points="57.4 7.2 61.2 7.2 61.2 29.5 73.8 29.5 73.8 30.1 57.4 30.1 57.4 7.2"/>
    <rect class="cls-2" x="80.1" y="7.2" width="3.8" height="22.9"/>
    <polygon class="cls-2" points="90.1 7.2 94.2 7.2 102.5 27.7 110.9 7.2 111.6 7.2 102.1 30.1 99.4 30.1 90.1 7.2"/>
    <path class="cls-2" d="M117.7,9.2l-.8-2.1h4.3l9.5,22.9h-4.3l-3.4-8.3h-9.9l-3.5,8.3h-.7l8.9-20.9ZM122.7,21.2l-4.6-11.2-4.8,11.2h9.4Z"/>
  </g>
  <g>
    <g>
      <path class="cls-3" d="M60,35c-.3-.2-.6-.4-1-.4s-.8.3-.8.7.1.4.4.6l.8.5c.6.4.8.7.8,1.2s-.5,1.3-1.5,1.3-.9-.1-1.2-.3v-.7c.3.2.7.4,1.2.4s.9-.3.9-.7-.2-.5-.5-.7l-.8-.5c-.6-.3-.8-.7-.8-1.2s.4-1.3,1.5-1.3.8.1,1,.3v.7Z"/>
      <path class="cls-3" d="M61.2,34.2h.6v2.4l1.8-2.4h.7l-1.5,2,1.6,2.8h-.7l-1.3-2.3-.6.8v1.6h-.6v-4.8Z"/>
      <path class="cls-3" d="M65.2,34.2h.6v4.8h-.6v-4.8Z"/>
      <path class="cls-3" d="M67.8,35.5v3.5h-.6v-4.3l-.3-.5h0s.7,0,.7,0l2.8,3.8v-3.8h.6v4.8h-.6l-2.6-3.5Z"/>
    </g>
    <g>
      <path class="cls-3" d="M87.9,36.8h-2.8v2.1h-.6v-4.8h.6v2.1h2.8v-2.1h.6v4.8h-.6v-2.1Z"/>
      <path class="cls-3" d="M92.5,37.6h-1.9l-.5,1.3h-.7l1.8-4.8h.7l1.8,4.8h-.7l-.5-1.3ZM90.7,37h1.5l-.8-2.1-.8,2.1Z"/>
      <path class="cls-3" d="M94.4,34.2h.6v4.8h-.6v-4.8Z"/>
      <path class="cls-3" d="M96.4,34.2h1.4c.9,0,1.5.5,1.5,1.4s-.4,1.1-1,1.2c.6.3,1.1,1.1,1.2,2.2h-.6c-.2-1.2-.8-2-1.5-2h-.5v2h-.6v-4.8ZM97.8,34.7h-.8v1.6h.8c.5,0,.9-.3.9-.8s-.4-.8-.9-.8Z"/>
    </g>
    <g>
      <path class="cls-3" d="M112.9,34.2h1.4c.8,0,1.4.5,1.4,1.2s-.3.9-.7,1.1c.5.2.8.6.8,1.2s-.7,1.3-1.5,1.3h-1.5v-4.8ZM114.3,34.7h-.8v1.5h.8c.4,0,.8-.2.8-.7s-.4-.7-.8-.7ZM114.4,36.8h-.9v1.6h.9c.5,0,.9-.2.9-.8s-.4-.8-.9-.8Z"/>
      <path class="cls-3" d="M119.1,34.1c1.4,0,2.5,1.1,2.5,2.5s-1.1,2.5-2.5,2.5-2.5-1.1-2.5-2.5,1.1-2.5,2.5-2.5ZM119.1,38.4c1.1,0,1.8-.8,1.8-1.9s-.8-1.9-1.8-1.9-1.8.8-1.8,1.9.8,1.9,1.8,1.9Z"/>
      <path class="cls-3" d="M122.6,34.2h1.7c1.4,0,2.4,1,2.4,2.4s-.9,2.4-2.4,2.4h-1.7v-4.8ZM123.2,34.7v3.7h1.1c1.1,0,1.7-.8,1.7-1.8s-.7-1.8-1.7-1.8h-1.1Z"/>
      <path class="cls-3" d="M128.5,36.8l-1.6-2.7h.7l1.2,2.1,1.2-2.1h.7l-1.6,2.7v2.1h-.6v-2.1Z"/>
    </g>
    <circle class="cls-3" cx="77.8" cy="36.5" r=".5"/>
    <circle class="cls-3" cx="106.2" cy="36.5" r=".5"/>
    <path class="cls-1" d="M130.4,36.5"/>
    <path class="cls-1" d="M105.8,36.5"/>
  </g>
  <g>
    <path class="cls-2" d="M79.4,45.6c0,1,.7,1.7,1.7,1.7s.9-.1,1.2-.4l.2-.2v1h0c-.4.3-.8.4-1.3.4-1.5,0-2.6-1.1-2.6-2.6s1.1-2.6,2.6-2.6.9.1,1.3.3h0v1l-.2-.2c-.3-.3-.7-.4-1.2-.4-1,0-1.7.8-1.7,1.7Z"/>
    <polygon class="cls-2" points="88 47.3 88 48.1 85.2 48.1 85.2 43.1 86.1 43.1 86.1 47.3 88 47.3"/>
    <rect class="cls-2" x="90.6" y="43.1" width=".8" height="5"/>
    <polygon class="cls-2" points="98.5 43.1 98.5 48.1 97.7 48.1 95.4 44.9 95.4 48.1 94.5 48.1 94.5 43.8 94.2 43.3 94.2 43.1 95.1 43.1 97.7 46.6 97.7 43.1 98.5 43.1"/>
    <rect class="cls-2" x="101.6" y="43.1" width=".8" height="5"/>
    <path class="cls-2" d="M106,45.6c0,1,.7,1.7,1.7,1.7s.9-.1,1.2-.4l.2-.2v1h0c-.4.3-.8.4-1.3.4-1.5,0-2.6-1.1-2.6-2.6s1.1-2.6,2.6-2.6.9.1,1.3.3h0v1l-.2-.2c-.3-.3-.7-.4-1.2-.4-1,0-1.7.8-1.7,1.7Z"/>
  </g>
  <g>
    <rect class="cls-2" x="57.2" y="45.3" width="18" height=".8"/>
    <rect class="cls-2" x="112.5" y="45.3" width="18.2" height=".8"/>
  </g>
</svg>